<?xml version="1.0" ?><!DOCTYPE svg  PUBLIC '-//W3C//DTD SVG 1.1//EN'  'http://www.w3.org/Graphics/SVG/1.1/DTD/svg11.dtd'><svg enable-background="new 0 0 512 512" height="512px" id="med_tech" version="1.1" viewBox="0 0 512 512" width="512px" xml:space="preserve" xmlns="http://www.w3.org/2000/svg" xmlns:xlink="http://www.w3.org/1999/xlink"><g><g id="XMLID_19_"><g><polygon fill="#1D1D1B" points="505.633,282.193 505.633,296.875 484.862,296.875 409.286,296.875 57.551,296.875 6.367,296.875      6.367,282.193 69.371,282.193 354.671,282.193    "/><path d="M484.862,300.946v1.293c0,7.239-5.846,13.082-13.07,13.082H282.015H173.526H40.209     c-7.225,0-13.083-5.843-13.083-13.082v-1.293h30.425v3.895h47.565v-3.895h304.17v3.895h47.563v-3.895H484.862z" fill="#1D1D1B"/><path d="M430.495,197.444c21.018,0,38.041,17.051,38.041,38.056c0,21.021-17.023,38.043-38.041,38.043     c-21.006,0-38.045-17.021-38.045-38.043C392.45,214.495,409.489,197.444,430.495,197.444z" fill="#1D1D1B"/><path d="M425.667,461.768v16.484h-26.021v-15.744H108.982v15.744h-26.02v-16.484     c0-9.581,7.762-17.329,17.343-17.329h31.893h97.79H408.34C417.919,444.438,425.667,452.187,425.667,461.768z" fill="#1D1D1B"/><path d="M388.339,465.575c1.961,2.807,3.123,6.221,3.123,9.915c0,9.593-7.764,17.369-17.355,17.369     c-9.596,0-17.372-7.776-17.372-17.369c0-3.694,1.163-7.108,3.126-9.915H388.339z M380.604,479.211     c0-3.591-2.91-6.498-6.498-6.498c-3.607,0-6.514,2.907-6.514,6.498c0,3.604,2.906,6.527,6.514,6.527     C377.694,485.738,380.604,482.815,380.604,479.211z" fill="#1D1D1B"/><path d="M354.671,200.046c17.152,0,31.078,17.43,31.078,38.931c0,21.498-13.926,38.912-31.078,38.912H263.29     c-12.166,0-22.705-8.778-27.793-21.558l-23.97-2.122L186.42,252l-3.139-0.277l-0.408-0.026c-0.086-0.016-0.218-0.03-0.247-0.03     l-1.671,0.087l-2.485,0.202c-3.417,0.307-7.022,0.771-10.641,1.366c-7.254,1.193-14.64,2.837-21.995,4.828l-24.058,6.817     c-16.354,4.536-32.634,8.939-48.931,13.288c-1.149,0.304-2.312,0.449-3.474,0.449c-8.897,0-17.895-8.591-21.122-20.891     c-3.649-13.926,1.352-27.3,11.178-29.916c16.165-4.317,32.315-8.678,48.363-13.141l24.422-6.905     c8.881-2.399,17.91-4.433,27.228-5.96c4.681-0.756,9.405-1.381,14.348-1.846c1.25-0.102,2.515-0.205,3.793-0.291l1.992-0.116     l2.646-0.102c1.046,0,2.093-0.029,3.139,0.071l2.486,0.205l3.155,0.274l25.104,2.227l19.901,1.744     c-0.217,2.033-0.088,4.126,0.552,6.192c0.479,1.568,1.25,3.096,2.312,4.417c0.262,0.336,0.538,0.655,0.829,0.962l0.451,0.435     l0.319,0.307l1.25,1.205l5.074,4.826l10.176,9.668c3.473,3.328,7.281,6.438,11.294,9.23c8.024,5.567,17.008,9.842,26.502,12.387     c4.754,1.263,9.621,2.122,14.55,2.485c2.458,0.173,4.944,0.232,7.444,0.144c0.623-0.027,1.25-0.057,1.889-0.102l0.943-0.086     l0.41-0.03c0,0,0.015,0,0.099,0h3.489h27.998h7.037c3.4-0.015,6.701-1.452,9.041-3.575c2.385-2.122,3.983-4.825,4.885-7.677     c0.899-2.849,1.104-5.828,0.682-8.749c-0.42-2.923-1.526-5.802-3.369-8.287c-1.834-2.456-4.521-4.563-7.779-5.466     c-0.814-0.231-1.642-0.393-2.5-0.449c-0.393-0.045-0.887-0.045-1.191-0.045h-0.889h-3.488h-7.005h-28.161l-2.83,0.218     c-0.715,0.045-1.587,0.045-2.373,0.029c-1.641-0.029-3.298-0.189-4.956-0.437c-3.286-0.479-6.558-1.367-9.696-2.558     c-6.31-2.385-12.124-6.12-17.211-10.698l-8.781-8.359h35.412H354.671z" fill="#1D1D1B"/><path d="M358.506,225.95c5.989,0,10.847,5.828,10.847,13.026c0,7.194-4.857,13.023-10.847,13.023h-38.71     c-1.293,0.131-2.311,0.19-3.388,0.232c-1.063,0.029-2.093,0.044-3.111,0.029c-2.048-0.045-4.039-0.176-6.017-0.393     c-3.955-0.408-7.822-1.149-11.602-2.18c-7.573-2.036-14.754-5.233-21.296-9.261c-3.255-2.035-6.382-4.26-9.317-6.658     c-1.469-1.206-2.894-2.441-4.29-3.722l-3.691-3.503l-14.129-13.461c-4.347-4.129-3.838-11.702,1.133-16.921     c4.958-5.203,12.502-6.075,16.834-1.949l14.146,13.464l3.385,3.212c1.002,0.943,2.035,1.831,3.083,2.688     c2.107,1.714,4.29,3.286,6.558,4.682c4.519,2.79,9.359,4.927,14.375,6.278c2.5,0.67,5.045,1.164,7.576,1.426     c1.247,0.131,2.497,0.218,3.705,0.232c0.608,0.015,1.207,0.015,1.775-0.015c0.55,0,1.146-0.058,1.482-0.087l1.002-0.074     l1.004-0.071H358.506z" fill="#1D1D1B"/><path d="M325.856,112.157c1.121,3.908,1.456,7.98,1.194,11.919c-0.248,3.953-1.062,7.806-2.197,11.514     c-0.566,1.846-1.206,3.662-1.917,5.451c-0.352,0.901-0.727,1.773-1.107,2.661l-1.088,2.513     c-5.627,13.359-8.75,27.838-7.952,42.246c0.146,2.905,0.466,5.813,0.946,8.677h-5.322c-0.42-2.777-0.712-5.581-0.858-8.403     c-0.842-15.321,2.489-30.599,8.359-44.554l1.119-2.602c0.363-0.815,0.714-1.643,1.033-2.473c0.669-1.671,1.265-3.344,1.786-5.043     c1.033-3.402,1.744-6.862,1.977-10.321c0.22-3.446-0.068-6.891-1.001-10.133c-0.931-3.241-2.515-6.266-4.638-8.912     c-4.244-5.319-10.436-9.085-17.039-11.701c-4.125-1.629-8.517-2.879-12.937-3.751c-2.876,2.952-7.427,3.882-11.351,1.991     l-2.283-1.104l1.932-7.063c1.774-6.499-1.408-13.157-7.209-15.86l0.61-1.266l15.554,7.546c4.188,2.02,6.281,6.615,5.336,10.961     c0.42,0.102,0.855,0.173,1.281,0.276c3.734,0.872,7.412,1.977,11.002,3.4c7.139,2.836,14.131,6.978,19.203,13.315     C322.82,104.581,324.739,108.261,325.856,112.157z" fill="#1D1D1B"/><rect fill="#1D1D1B" height="122.953" width="52.026" x="229.988" y="318.724"/><path d="M265.776,68.095c5.539,2.036,8.665,8.067,7.066,13.955l-8.346,30.613l-4.172,15.31l-2.078,7.659     l-1.047,3.825l-0.276,1.003c-0.116,0.465-0.248,0.914-0.406,1.381c-0.291,0.915-0.625,1.831-1.003,2.745     c-1.498,3.664-3.75,7.228-6.615,10.192c-2.878,2.979-6.264,5.335-9.929,7.02c-0.93,0.423-1.874,0.815-2.864,1.164l-0.9,0.291     c-0.305,0.087-0.64,0.188-0.945,0.277c-0.64,0.173-1.279,0.333-1.933,0.435c-0.655,0.071-1.338,0.146-1.948,0.19l-0.989,0.071     l-1.977,0.176l-7.908,0.625l-31.632,2.558c-6.411,0.509-12.022-4.171-12.531-10.481c-0.509-6.309,4.273-11.833,10.698-12.356     l31.633-2.543l7.893-0.64l3.009-0.232c0,0,0-0.015,0.043-0.029c0.247-0.087,0.539-0.19,0.814-0.321     c1.134-0.521,2.152-1.25,2.952-2.078c0.799-0.843,1.454-1.816,1.963-3.052c0.13-0.321,0.247-0.64,0.348-0.976     c0.058-0.173,0.102-0.349,0.16-0.521l0.247-0.917l1.048-3.822l2.078-7.661l4.172-15.292l8.345-30.631     c1.687-6.207,7.993-9.884,14.1-8.228C265.166,67.893,265.47,67.993,265.776,68.095z" fill="#1D1D1B"/><path d="M267.914,65.942l-0.61,1.266c-0.364-0.176-0.727-0.318-1.104-0.45c-0.334-0.131-0.685-0.231-1.033-0.336     c-7.136-1.946-14.521,2.355-16.499,9.609l-0.597,2.211l-6.366-3.083c-4.915-2.385-6.95-8.27-4.58-13.17     c2.384-4.914,8.286-6.947,13.186-4.578L267.914,65.942z M246.007,66.279c1.133-2.328,0.552-4.944-1.308-5.847     c-1.847-0.887-4.26,0.277-5.394,2.603c-1.134,2.342-0.552,4.958,1.293,5.846C242.459,69.78,244.874,68.619,246.007,66.279z" fill="#1D1D1B"/><path d="M207.659,20.05c17.822,4.23,28.841,22.126,24.596,39.948c-4.245,17.837-22.14,28.842-39.962,24.597     c-17.822-4.244-28.827-22.126-24.582-39.948C171.943,26.825,189.838,15.805,207.659,20.05z" fill="#1D1D1B"/><path d="M196.364,93.927c0,0,11.034,20.002,10.931,45.399l-21.906,1.759c-8.331,0.667-14.538,7.85-13.882,16.033     c0.668,8.184,7.936,14.262,16.251,13.592l0.363-0.029l14.188-1.149l-3.111,13.041l0.044,0.015     c-1.033,4.361-2.167,9.13-3.358,14.144l-0.553-0.042l-3.867-0.351l-3.052-0.248c-1.293-0.131-2.587-0.086-3.88-0.071     l-3.242,0.116l-2.442,0.131c-1.585,0.116-3.141,0.232-4.667,0.378c-0.247,0.03-0.494,0.045-0.728,0.072     c-5.829,0.538-11.411,1.294-16.92,2.182c-11.469,1.875-22.575,4.375-33.493,7.325l-17.386,4.93l1.309-6.251l2.442-10.264     l16.804-84.678c8.213-34.554,40.602-35.629,40.602-35.629L196.364,93.927z" fill="#1D1D1B"/><polygon fill="#1D1D1B" points="173.526,318.724 173.526,441.677 132.198,441.677 132.198,360.023 124.931,318.724    "/><path d="M146.11,465.575c1.961,2.807,3.111,6.221,3.111,9.915c0,9.593-7.764,17.369-17.357,17.369     c-9.594,0-17.356-7.776-17.356-17.369c0-3.694,1.147-7.108,3.11-9.915H146.11z M138.376,479.211c0-3.591-2.907-6.498-6.513-6.498     c-3.605,0-6.512,2.907-6.512,6.498c0,3.604,2.907,6.527,6.512,6.527C135.47,485.738,138.376,482.815,138.376,479.211z" fill="#1D1D1B"/></g></g></g></svg>